<svg xmlns="http://www.w3.org/2000/svg" width="49.027" height="49.027" viewBox="0 0 49.027 49.027"><defs><style>.a{fill:#f6bf31;}.b{fill:#eaeaea;}.c{fill:#ff6e6e;}.d{fill:#65727f;}</style></defs><g transform="translate(-6.306 -6.306)"><circle class="a" cx="24.513" cy="24.513" r="24.513" transform="translate(6.306 6.306)"/><circle class="b" cx="20.378" cy="20.378" r="20.378" transform="translate(10.441 10.441)"/><path class="c" d="M61.15,45.027l-9.513,6.61-6.61,9.513L54.54,54.54Z" transform="translate(-22.269 -22.269)"/><g transform="translate(13.193 13.193)"><circle class="d" cx="2.018" cy="2.018" r="2.018" transform="translate(15.609 15.609)"/><path class="d" d="M94.789,93.736c-.336.365-.684.714-1.049,1.049l-1.933-1.933a.744.744,0,0,1,0-1.049.736.736,0,0,1,1.049,0Z" transform="translate(-62.241 -62.237)"/><path class="d" d="M31.863,31.863a.738.738,0,0,1-.523.221.747.747,0,0,1-.527-.221L28.88,29.929c.336-.365.684-.714,1.049-1.049l1.933,1.933a.736.736,0,0,1,0,1.049Z" transform="translate(-26.176 -26.176)"/><path class="d" d="M31.863,92.871,29.929,94.8c-.365-.336-.714-.684-1.049-1.049l1.933-1.933a.742.742,0,0,1,1.049,1.049Z" transform="translate(-26.176 -62.256)"/><path class="d" d="M94.8,29.929,92.87,31.863a.742.742,0,0,1-1.049-1.049l1.933-1.933C94.119,29.216,94.467,29.564,94.8,29.929Z" transform="translate(-62.255 -26.176)"/><path class="d" d="M98.479,59.512v.733h2.3v1.047h-2.3v.829h2.534v1.047h-3.7v-4.7h3.7v1.047Z" transform="translate(-65.53 -43.19)"/><path class="d" d="M22.515,58.465h1.268L24.5,61.4l.977-2.937h1.26l.973,2.937.719-2.937H29.7l-1.362,4.7H27.157L26.109,60.19l-1.047,2.978H23.884Z" transform="translate(-22.515 -43.19)"/><path class="d" d="M58.835,22.515h1.171l2.048,2.78v-2.78h1.171v4.7H62.053l-2.048-2.78v2.78H58.835Z" transform="translate(-43.403 -22.515)"/><path class="d" d="M59.239,98.106l.657-.787a2.4,2.4,0,0,0,1.547.595c.438,0,.664-.178.664-.431,0-.281-.219-.342-.9-.507-1.006-.226-1.753-.5-1.753-1.445,0-.9.726-1.506,1.8-1.506a2.843,2.843,0,0,1,1.9.643l-.595.835a2.255,2.255,0,0,0-1.341-.5c-.377,0-.589.178-.589.411,0,.287.226.382.925.534,1.055.226,1.732.527,1.732,1.411,0,.945-.718,1.533-1.882,1.533A3.184,3.184,0,0,1,59.239,98.106Z" transform="translate(-43.636 -63.64)"/></g></g></svg>