<svg xmlns="http://www.w3.org/2000/svg" width="46.503" height="32" viewBox="0 0 46.503 32"><defs><style>.a{fill:#fff;}.b{fill:#3757a6;}.c{fill:#ef4f4e;}.d{fill:#dd4545;}.e{fill:#e2f2f1;}.f{fill:#2a4d93;}.g{fill:#cc3e3e;}.h{fill:#d6eae8;}.i{fill:#133970;}</style></defs><g transform="translate(0 -80)"><rect class="a" width="17" height="32" transform="translate(15 80)"/><path class="b" d="M15,80H4.5A4.341,4.341,0,0,0,0,84.35v22.8a4.341,4.341,0,0,0,4.5,4.35H15Z"/><path class="c" d="M346.5,80H336v31.5h10.5a4.341,4.341,0,0,0,4.5-4.35V84.35A4.341,4.341,0,0,0,346.5,80Z" transform="translate(-304.498)"/><path class="d" d="M346.5,80H336v22.576l10.351,8.926a4.47,4.47,0,0,0,4.65-4.35V84.35A4.341,4.341,0,0,0,346.5,80Z" transform="translate(-304.498)"/><path class="e" d="M176.5,102.576V80H160v8.926Z" transform="translate(-144.999)"/><path class="f" d="M58.5,80H48l10.5,8.926Z" transform="translate(-43.5)"/><path class="g" d="M336,372.5h10.5A4.209,4.209,0,0,0,351,368H336Z" transform="translate(-304.498 -260.998)"/><rect class="h" width="17" height="5" transform="translate(15 107)"/><path class="i" d="M0,368a4.209,4.209,0,0,0,4.5,4.5H15V368Z" transform="translate(0 -260.998)"/><path class="g" d="M346.5,80H336v7.951l15,4.65V84.35A4.341,4.341,0,0,0,346.5,80Z" transform="translate(-304.498)"/><path class="h" d="M176.5,87.951V80H160v3.075Z" transform="translate(-144.999)"/><path class="i" d="M58.5,80H48l10.5,3.075Z" transform="translate(-43.5)"/></g></svg>