<svg xmlns="http://www.w3.org/2000/svg" width="206.277" height="181.388" viewBox="0 0 206.277 181.388"><defs><style>.a{opacity:0.501;}.b{fill:#f8c43d;}</style></defs><g class="a" transform="translate(45.968 -4.848) rotate(16)"><g transform="translate(17.589 0)"><path class="b" d="M201.537.428a3.257,3.257,0,0,0-3.272.025l-59.69,35.3a3.257,3.257,0,0,0,3.316,5.607l42.827-25.325L104.946,98.8,65.271,86.664l51.778-30.618a3.257,3.257,0,0,0-3.316-5.608L55.6,84.815a3.257,3.257,0,0,0,.7,5.919l47.382,14.5,20.9,38.049a.773.773,0,0,0,.067.1,3.248,3.248,0,0,0,5.064.659l24.036-23.491L198.97,134.38a3.257,3.257,0,0,0,4.21-3.115V3.257A3.257,3.257,0,0,0,201.537.428Zm-76.77,106.81a3.259,3.259,0,0,0-.579,1.855v19.925l-14.274-25.981L173.079,37.5Zm5.935,26.735V113.5l15.957,4.882Zm65.963-7.109-64-19.581,64-92.4Z" transform="translate(-53.999 0)"/></g><g transform="translate(17.589 112.259)"><path class="b" d="M89.967,345.6a3.258,3.258,0,0,0-4.607,0L54.953,376.009a3.257,3.257,0,0,0,4.607,4.606l30.407-30.407A3.257,3.257,0,0,0,89.967,345.6Z" transform="translate(-53.999 -344.648)"/></g><g transform="translate(0 152.764)"><path class="b" d="M13.052,469.954a3.258,3.258,0,0,0-4.606,0L.954,477.446a3.257,3.257,0,1,0,4.606,4.606l7.492-7.492A3.258,3.258,0,0,0,13.052,469.954Z" transform="translate(0 -469.001)"/></g><g transform="translate(40.904 160.063)"><path class="b" d="M131.14,492.364a3.255,3.255,0,1,0,.955,2.3A3.28,3.28,0,0,0,131.14,492.364Z" transform="translate(-125.58 -491.41)"/></g><g transform="translate(49.033 135.828)"><path class="b" d="M172.2,417.96a3.257,3.257,0,0,0-4.606,0l-16.106,16.105a3.257,3.257,0,1,0,4.606,4.606L172.2,422.567A3.257,3.257,0,0,0,172.2,417.96Z" transform="translate(-150.534 -417.006)"/></g><g transform="translate(104.574 134.592)"><path class="b" d="M342.763,414.165a3.258,3.258,0,0,0-4.606,0l-16.149,16.149a3.257,3.257,0,1,0,4.606,4.607l16.149-16.149A3.258,3.258,0,0,0,342.763,414.165Z" transform="translate(-321.053 -413.211)"/></g><g transform="translate(86.782 43.445)"><path class="b" d="M271.99,134.334a3.256,3.256,0,1,0,.954,2.306A3.282,3.282,0,0,0,271.99,134.334Z" transform="translate(-266.43 -133.38)"/></g></g></svg>