<svg xmlns="http://www.w3.org/2000/svg" width="65.711" height="65.828" viewBox="0 0 65.711 65.828"><defs><style>.a{fill:#1125ba;}.b{fill:#3c4ab4;}.c{fill:#f8cd44;}</style></defs><path class="a" d="M59.231,60.238c-10.073,8.223-41.525,8.223-51.392,0s-9.045-43.375,0-52.625,42.347-9.251,51.392,0S69.3,52.016,59.231,60.238Z" transform="translate(-0.695 -0.577)"/><path class="b" d="M33.452,45.271c-9.045,7.195-19.118,10.9-28.574,11.1C-2.111,44.449-.673,15.464,7.55,7.036c7.4-7.606,30.63-9.045,43.991-4.317C54.831,16.286,48.047,33.554,33.452,45.271Z" transform="translate(-0.406 0)"/><path class="c" d="M145.529,103.521a7.123,7.123,0,0,0,1.439-4.111,4.669,4.669,0,0,0-1.233-3.289,4.851,4.851,0,0,0-3.289-1.439c-2.467,0-4.934,1.85-7.195,5.345l-7.195-4.111a21.26,21.26,0,0,1,6.167-6.578,15.6,15.6,0,0,1,8.428-2.261,13.654,13.654,0,0,1,9.045,3.289A10.852,10.852,0,0,1,155.6,99.2a12.388,12.388,0,0,1-1.645,5.961,34.52,34.52,0,0,1-5.756,7.195l-7.195,7.4h15.829v8.017H128.673V121.2l11.717-11.923A49.7,49.7,0,0,0,145.529,103.521Z" transform="translate(-109.605 -74.49)"/></svg>