<svg xmlns="http://www.w3.org/2000/svg" width="65.741" height="65.828" viewBox="0 0 65.741 65.828"><defs><style>.a{fill:#1125ba;}.b{fill:#3c4ab4;}.c{fill:#fcc94a;}</style></defs><path class="a" d="M58.867,60.238c-10.073,8.223-41.525,8.223-51.392,0C-2.6,52.015-1.57,16.863,7.475,7.613s42.347-9.251,51.392,0S68.94,52.016,58.867,60.238Z" transform="translate(-0.301 -0.578)"/><path class="b" d="M33.555,45.271c-9.045,7.195-19.118,10.9-28.574,11.1C-2.008,44.449-.569,15.464,7.654,7.036c7.4-7.606,30.63-9.045,43.991-4.317C54.934,16.286,48.151,33.554,33.555,45.271Z" transform="translate(-0.479 0)"/><path class="c" d="M172.249,89.92h16.034v39.675h-8.428V97.526h-7.606V89.92Z" transform="translate(-147.396 -76.923)"/></svg>