<svg xmlns="http://www.w3.org/2000/svg" width="47.238" height="32" viewBox="0 0 47.238 32"><defs><style>.a{fill:#29337a;}.b{fill:#1b265b;}.c{fill:#111d49;}.d{fill:#fff;}.e{fill:#d9eced;}.f{fill:#e51d35;}.g{fill:#af0026;}</style></defs><g transform="translate(0 -80)"><path class="a" d="M47.238,107.581A4.41,4.41,0,0,1,42.667,112H4.571A4.41,4.41,0,0,1,0,107.581V84.419A4.41,4.41,0,0,1,4.571,80h38.1a4.41,4.41,0,0,1,4.571,4.419Z"/><path class="b" d="M48,80H86.1a4.41,4.41,0,0,1,4.571,4.419v23.162c0,2.59-2.438,4.419-4.952,4.419" transform="translate(-43.429)"/><g transform="translate(0 80)"><path class="c" d="M48,80H86.1a4.41,4.41,0,0,1,4.571,4.419v8.533" transform="translate(-43.429 -80)"/><path class="c" d="M47.238,368.076a4.472,4.472,0,0,1-4.571,4.5H4.571A4.536,4.536,0,0,1,0,368" transform="translate(0 -340.571)"/></g><path class="d" d="M74.4,96,90.629,80H86.057L72.114,93.943,58.171,80H53.6L69.829,96,53.6,112h4.571L72.114,98.057,86.057,112h4.571Z" transform="translate(-48.495)"/><g transform="translate(5.105 80)"><path class="e" d="M58.248,368,53.6,372.571h4.571L62.743,368Z" transform="translate(-53.6 -340.571)"/><path class="e" d="M346.4,368l4.571,4.571h4.571L350.9,368Z" transform="translate(-318.514 -340.571)"/><path class="e" d="M87.657,109.181,74.4,96.152,90.629,80H86.057L72.114,93.943,58.171,80H53.6l3.048,2.9Z" transform="translate(-53.6 -80)"/></g><path class="d" d="M47.238,92.952H26.667V80h-6.1V92.952H0v6.1H20.571V112h6.1V99.048H47.238Z"/><g transform="translate(20.038 80)"><rect class="e" width="6" height="5" transform="translate(0.962 27)"/><path class="e" d="M217.029,80h-6.1V92.952H210.4l7.162,6.1H237.6v-6.1H217.029Z" transform="translate(-210.4 -80)"/></g><path class="f" d="M47.238,94.476H26.057L41.219,80H39.7L25.143,94.476V80H22.1V94.476h0L7.39,80H6.019L20.571,94.476H0v3.048H20.648L6.4,112H7.771L22.1,97.524V112h3.048V97.676L39.848,112h1.371L26.667,97.524H47.238Z"/><g transform="translate(6.019 80)"><rect class="g" width="3" height="5" transform="translate(15.981 27)"/><path class="g" d="M71.7,368l-4.5,4.571h1.371L73.143,368Z" transform="translate(-66.819 -340.571)"/><path class="g" d="M369.6,368l4.648,4.571h1.371L370.971,368Z" transform="translate(-340.419 -340.571)"/><path class="g" d="M83.7,94.476,98.4,80H96.876L82.324,94.476V80H79.276V94.476h0L64.571,80H63.2l8.381,8.3L89.867,103.7l-6.019-6.171h20.571V94.476H83.7Z" transform="translate(-63.2 -80)"/></g></g></svg>